<mxfile host="app.diagrams.net" modified="2021-10-19T23:10:09.261Z" agent="5.0 (Windows NT 10.0; Win64; x64) AppleWebKit/537.36 (KHTML, like Gecko) Chrome/94.0.4606.81 Safari/537.36" etag="1mkL09cR_DHhOWO951p4" version="15.5.6" type="github">
  <diagram name="Page-1" id="e7e014a7-5840-1c2e-5031-d8a46d1fe8dd">
    <mxGraphModel dx="2076" dy="1158" grid="1" gridSize="10" guides="1" tooltips="1" connect="1" arrows="1" fold="1" page="1" pageScale="1" pageWidth="1169" pageHeight="827" background="none" math="0" shadow="0">
      <root>
        <mxCell id="0" />
        <mxCell id="1" parent="0" />
        <mxCell id="S2fQK8ypGB0jmmI-l9ko-154" value="Pasivos" style="html=1;" vertex="1" parent="1">
          <mxGeometry x="480" y="819" width="110" height="50" as="geometry" />
        </mxCell>
        <mxCell id="S2fQK8ypGB0jmmI-l9ko-155" value="Activos" style="html=1;" vertex="1" parent="1">
          <mxGeometry x="480" y="969" width="110" height="50" as="geometry" />
        </mxCell>
        <mxCell id="S2fQK8ypGB0jmmI-l9ko-156" value="Activos" style="html=1;" vertex="1" parent="1">
          <mxGeometry x="480" y="1080" width="110" height="50" as="geometry" />
        </mxCell>
        <mxCell id="S2fQK8ypGB0jmmI-l9ko-157" value="Pasivos" style="html=1;" vertex="1" parent="1">
          <mxGeometry x="480" y="1229" width="110" height="50" as="geometry" />
        </mxCell>
        <mxCell id="S2fQK8ypGB0jmmI-l9ko-164" style="edgeStyle=orthogonalEdgeStyle;rounded=0;orthogonalLoop=1;jettySize=auto;html=1;entryX=0.498;entryY=0.348;entryDx=0;entryDy=0;entryPerimeter=0;" edge="1" parent="1" source="S2fQK8ypGB0jmmI-l9ko-158" target="S2fQK8ypGB0jmmI-l9ko-160">
          <mxGeometry relative="1" as="geometry" />
        </mxCell>
        <mxCell id="S2fQK8ypGB0jmmI-l9ko-158" value="Cliente" style="" vertex="1" parent="1">
          <mxGeometry x="204" y="849" width="110" height="50" as="geometry" />
        </mxCell>
        <mxCell id="S2fQK8ypGB0jmmI-l9ko-159" value="Empresarial" style="html=1;" vertex="1" parent="1">
          <mxGeometry x="174" y="1109" width="80" height="50" as="geometry" />
        </mxCell>
        <mxCell id="S2fQK8ypGB0jmmI-l9ko-160" value="" style="shape=line;html=1;strokeWidth=6;strokeColor=#ff0000;rotation=0;" vertex="1" parent="1">
          <mxGeometry x="184" y="939" width="150" height="10" as="geometry" />
        </mxCell>
        <mxCell id="S2fQK8ypGB0jmmI-l9ko-161" value="Personal" style="html=1;" vertex="1" parent="1">
          <mxGeometry x="274" y="979" width="70" height="50" as="geometry" />
        </mxCell>
        <mxCell id="S2fQK8ypGB0jmmI-l9ko-162" value="" style="shape=line;html=1;strokeWidth=6;strokeColor=#ff0000;rotation=-90;" vertex="1" parent="1">
          <mxGeometry x="276" y="931" width="230" height="10" as="geometry" />
        </mxCell>
        <mxCell id="S2fQK8ypGB0jmmI-l9ko-163" value="" style="shape=line;html=1;strokeWidth=6;strokeColor=#ff0000;rotation=-90;" vertex="1" parent="1">
          <mxGeometry x="276" y="1179" width="230" height="10" as="geometry" />
        </mxCell>
        <mxCell id="S2fQK8ypGB0jmmI-l9ko-166" style="edgeStyle=orthogonalEdgeStyle;rounded=0;orthogonalLoop=1;jettySize=auto;html=1;entryX=0.497;entryY=0.682;entryDx=0;entryDy=0;entryPerimeter=0;exitX=0.81;exitY=0.653;exitDx=0;exitDy=0;exitPerimeter=0;" edge="1" parent="1" source="S2fQK8ypGB0jmmI-l9ko-160">
          <mxGeometry relative="1" as="geometry">
            <mxPoint x="306" y="950" as="sourcePoint" />
            <mxPoint x="305.5500000000002" y="978.8200000000002" as="targetPoint" />
            <Array as="points" />
          </mxGeometry>
        </mxCell>
        <mxCell id="S2fQK8ypGB0jmmI-l9ko-167" style="edgeStyle=orthogonalEdgeStyle;rounded=0;orthogonalLoop=1;jettySize=auto;html=1;entryX=0.5;entryY=0;entryDx=0;entryDy=0;exitX=0.2;exitY=0.539;exitDx=0;exitDy=0;exitPerimeter=0;" edge="1" parent="1" source="S2fQK8ypGB0jmmI-l9ko-160" target="S2fQK8ypGB0jmmI-l9ko-159">
          <mxGeometry relative="1" as="geometry">
            <mxPoint x="214" y="949" as="sourcePoint" />
            <mxPoint x="213.81000000000017" y="982.2900000000002" as="targetPoint" />
            <Array as="points" />
          </mxGeometry>
        </mxCell>
        <mxCell id="S2fQK8ypGB0jmmI-l9ko-168" style="edgeStyle=orthogonalEdgeStyle;rounded=0;orthogonalLoop=1;jettySize=auto;html=1;entryX=0.715;entryY=0.255;entryDx=0;entryDy=0;exitX=1;exitY=0.5;exitDx=0;exitDy=0;entryPerimeter=0;" edge="1" parent="1" source="S2fQK8ypGB0jmmI-l9ko-159" target="S2fQK8ypGB0jmmI-l9ko-163">
          <mxGeometry relative="1" as="geometry">
            <mxPoint x="308.65999999999997" y="1049.9999999999998" as="sourcePoint" />
            <mxPoint x="308.65999999999997" y="1214.61" as="targetPoint" />
            <Array as="points" />
          </mxGeometry>
        </mxCell>
        <mxCell id="S2fQK8ypGB0jmmI-l9ko-170" style="edgeStyle=orthogonalEdgeStyle;rounded=0;orthogonalLoop=1;jettySize=auto;html=1;exitX=0.2;exitY=0.539;exitDx=0;exitDy=0;exitPerimeter=0;entryX=0.209;entryY=0.24;entryDx=0;entryDy=0;entryPerimeter=0;" edge="1" parent="1" target="S2fQK8ypGB0jmmI-l9ko-162">
          <mxGeometry relative="1" as="geometry">
            <mxPoint x="344" y="1003.5" as="sourcePoint" />
            <mxPoint x="380" y="1003.81" as="targetPoint" />
            <Array as="points" />
          </mxGeometry>
        </mxCell>
        <mxCell id="S2fQK8ypGB0jmmI-l9ko-176" value="Ahorro" style="html=1;" vertex="1" parent="1">
          <mxGeometry x="710" y="1150" width="110" height="50" as="geometry" />
        </mxCell>
        <mxCell id="S2fQK8ypGB0jmmI-l9ko-177" value="Plazo Fijo" style="html=1;" vertex="1" parent="1">
          <mxGeometry x="710" y="1270" width="110" height="50" as="geometry" />
        </mxCell>
        <mxCell id="S2fQK8ypGB0jmmI-l9ko-178" value="Cuenta Corriente" style="html=1;" vertex="1" parent="1">
          <mxGeometry x="710" y="1208" width="110" height="50" as="geometry" />
        </mxCell>
        <mxCell id="S2fQK8ypGB0jmmI-l9ko-207" style="edgeStyle=orthogonalEdgeStyle;rounded=0;orthogonalLoop=1;jettySize=auto;html=1;" edge="1" parent="1" source="S2fQK8ypGB0jmmI-l9ko-179">
          <mxGeometry relative="1" as="geometry">
            <mxPoint x="880" y="815" as="targetPoint" />
          </mxGeometry>
        </mxCell>
        <mxCell id="S2fQK8ypGB0jmmI-l9ko-179" value="Ahorro" style="html=1;" vertex="1" parent="1">
          <mxGeometry x="710" y="790" width="110" height="50" as="geometry" />
        </mxCell>
        <mxCell id="S2fQK8ypGB0jmmI-l9ko-208" style="edgeStyle=orthogonalEdgeStyle;rounded=0;orthogonalLoop=1;jettySize=auto;html=1;" edge="1" parent="1" source="S2fQK8ypGB0jmmI-l9ko-180">
          <mxGeometry relative="1" as="geometry">
            <mxPoint x="880" y="875" as="targetPoint" />
          </mxGeometry>
        </mxCell>
        <mxCell id="S2fQK8ypGB0jmmI-l9ko-180" value="Cuenta Corriente" style="html=1;" vertex="1" parent="1">
          <mxGeometry x="710" y="850" width="110" height="50" as="geometry" />
        </mxCell>
        <mxCell id="S2fQK8ypGB0jmmI-l9ko-209" style="edgeStyle=orthogonalEdgeStyle;rounded=0;orthogonalLoop=1;jettySize=auto;html=1;" edge="1" parent="1">
          <mxGeometry relative="1" as="geometry">
            <mxPoint x="889" y="935" as="targetPoint" />
            <mxPoint x="819" y="935" as="sourcePoint" />
          </mxGeometry>
        </mxCell>
        <mxCell id="S2fQK8ypGB0jmmI-l9ko-181" value="Plazo Fijo" style="html=1;" vertex="1" parent="1">
          <mxGeometry x="710" y="910" width="110" height="50" as="geometry" />
        </mxCell>
        <mxCell id="S2fQK8ypGB0jmmI-l9ko-182" value="Créditos &amp;gt;= 1" style="html=1;" vertex="1" parent="1">
          <mxGeometry x="710" y="980" width="110" height="50" as="geometry" />
        </mxCell>
        <mxCell id="S2fQK8ypGB0jmmI-l9ko-183" value="Créditos = 1" style="html=1;" vertex="1" parent="1">
          <mxGeometry x="710" y="1080" width="110" height="50" as="geometry" />
        </mxCell>
        <mxCell id="S2fQK8ypGB0jmmI-l9ko-203" value="Tarjeta" style="html=1;" vertex="1" parent="1">
          <mxGeometry x="970" y="869" width="110" height="50" as="geometry" />
        </mxCell>
        <mxCell id="S2fQK8ypGB0jmmI-l9ko-205" value="" style="line;strokeWidth=1;fillColor=none;align=left;verticalAlign=middle;spacingTop=-1;spacingLeft=3;spacingRight=3;rotatable=0;labelPosition=right;points=[];portConstraint=eastwest;" vertex="1" parent="1">
          <mxGeometry x="130" y="1053" width="1000" height="8" as="geometry" />
        </mxCell>
        <mxCell id="S2fQK8ypGB0jmmI-l9ko-210" value="" style="shape=line;html=1;strokeWidth=6;strokeColor=#ff0000;rotation=-90;" vertex="1" parent="1">
          <mxGeometry x="787.25" y="867.25" width="204.5" height="10" as="geometry" />
        </mxCell>
        <mxCell id="S2fQK8ypGB0jmmI-l9ko-211" style="edgeStyle=orthogonalEdgeStyle;rounded=0;orthogonalLoop=1;jettySize=auto;html=1;" edge="1" parent="1">
          <mxGeometry relative="1" as="geometry">
            <mxPoint x="970" y="893.29" as="targetPoint" />
            <mxPoint x="894" y="893" as="sourcePoint" />
            <Array as="points">
              <mxPoint x="894" y="893" />
            </Array>
          </mxGeometry>
        </mxCell>
        <mxCell id="S2fQK8ypGB0jmmI-l9ko-212" value="" style="shape=line;html=1;strokeWidth=6;strokeColor=#ff0000;rotation=-90;" vertex="1" parent="1">
          <mxGeometry x="774.5" y="1240" width="230" height="10" as="geometry" />
        </mxCell>
        <mxCell id="S2fQK8ypGB0jmmI-l9ko-213" style="edgeStyle=orthogonalEdgeStyle;rounded=0;orthogonalLoop=1;jettySize=auto;html=1;" edge="1" parent="1">
          <mxGeometry relative="1" as="geometry">
            <mxPoint x="890" y="1294.17" as="targetPoint" />
            <mxPoint x="820" y="1294.17" as="sourcePoint" />
          </mxGeometry>
        </mxCell>
        <mxCell id="S2fQK8ypGB0jmmI-l9ko-215" style="edgeStyle=orthogonalEdgeStyle;rounded=0;orthogonalLoop=1;jettySize=auto;html=1;exitX=0.75;exitY=0.5;exitDx=0;exitDy=0;exitPerimeter=0;" edge="1" parent="1">
          <mxGeometry relative="1" as="geometry">
            <mxPoint x="889.5" y="1136.5" as="sourcePoint" />
            <mxPoint x="889.5" y="1309" as="targetPoint" />
          </mxGeometry>
        </mxCell>
        <mxCell id="S2fQK8ypGB0jmmI-l9ko-216" value="Tarjeta" style="html=1;" vertex="1" parent="1">
          <mxGeometry x="970" y="1189" width="110" height="50" as="geometry" />
        </mxCell>
        <mxCell id="S2fQK8ypGB0jmmI-l9ko-217" style="edgeStyle=orthogonalEdgeStyle;rounded=0;orthogonalLoop=1;jettySize=auto;html=1;" edge="1" parent="1">
          <mxGeometry relative="1" as="geometry">
            <mxPoint x="970" y="1220.29" as="targetPoint" />
            <mxPoint x="894" y="1220" as="sourcePoint" />
            <Array as="points">
              <mxPoint x="894" y="1220" />
            </Array>
          </mxGeometry>
        </mxCell>
      </root>
    </mxGraphModel>
  </diagram>
</mxfile>
